P2
31 23
255
0 0 0 0 1 2 3 3 3 3 4 4 4 4 4 4 4 4 4 4 3 3 3 2 1 1 1 0 0 0 0
0 0 0 0 1 3 4 5 5 6 7 7 7 7 7 7 7 7 7 7 7 7 7 5 4 3 2 1 0 0 0
0 0 0 0 1 3 5 8 9 10 10 10 11 11 11 11 11 11 11 11 11 12 11 10 8 7 4 2 1 0 0
0 0 0 0 1 3 5 8 11 13 14 15 15 15 15 15 15 15 15 15 16 16 15 14 13 12 9 6 3 1 0
0 0 0 0 1 3 5 8 11 14 16 17 17 17 17 18 18 18 18 18 19 19 19 17 16 15 12 9 5 1 0
0 0 0 0 1 4 6 8 11 15 18 19 20 20 20 20 20 21 21 21 21 21 21 20 18 16 15 12 4 0 0
0 0 0 0 1 4 7 10 13 16 19 21 22 22 22 22 23 23 23 24 24 24 24 21 19 17 16 13 4 1 0
0 0 0 1 3 9 13 16 20 24 27 29 30 28 27 27 27 28 30 30 30 30 28 24 20 17 14 10 4 1 0
0 0 0 1 5 14 23 27 28 31 34 35 35 33 36 38 39 40 40 40 40 41 39 34 27 20 16 12 7 2 0
0 0 0 1 4 11 22 33 39 46 50 54 57 58 60 60 60 57 56 54 52 52 50 46 40 30 21 13 8 2 0
0 0 0 1 5 13 21 38 60 82 92 87 86 94 101 102 94 83 80 80 80 78 76 73 66 58 45 30 17 4 0
0 0 0 2 8 24 41 53 68 82 99 110 113 120 119 121 123 123 119 121 121 127 115 99 81 70 61 47 30 7 1
0 0 0 2 8 25 47 70 103 119 116 125 142 148 154 148 157 156 160 163 152 141 133 113 110 79 55 40 26 7 1
0 0 0 2 8 28 55 74 98 125 156 208 218 207 198 192 199 197 198 194 183 192 192 195 167 106 77 54 30 7 1
0 0 0 2 11 37 59 83 111 147 161 213 191 194 201 188 208 211 208 207 201 219 197 156 132 93 81 64 40 10 1
0 0 0 1 5 21 49 85 108 147 192 234 255 220 215 203 219 206 216 219 205 203 239 241 210 135 89 66 45 12 1
0 0 0 0 2 6 16 40 74 106 161 200 209 195 173 163 190 208 190 164 182 187 160 161 167 146 127 90 57 15 1
0 0 0 0 1 3 6 13 26 41 68 94 110 115 104 100 102 113 125 105 94 109 107 95 88 80 79 67 51 15 1
0 0 0 0 0 1 2 4 8 14 23 34 38 36 37 36 36 36 35 32 30 32 33 33 30 29 27 23 17 5 0
0 0 0 0 0 0 1 2 3 5 9 14 14 13 15 14 12 12 12 12 13 11 11 11 11 11 10 9 7 2 0
0 0 0 0 0 0 1 1 1 2 3 5 6 6 5 5 5 5 5 5 5 5 5 5 5 5 4 4 3 1 0
0 0 0 0 0 0 0 1 1 1 1 2 2 2 2 2 2 2 2 2 2 2 2 2 2 2 1 1 1 0 0
0 0 0 0 0 0 0 0 0 1 1 1 1 1 1 1 1 1 1 1 1 1 1 1 1 1 1 0 0 0 0
