P2
#well centered gaussian
100 100
10000
  0   0   0   0   0   0   1   1   1   1   1   1   1   1   1   1   1   1   2   2   2   2   2   2   2   2   2   3   3   3   3   3   3   3   3   3   3   3   4   4   4   4   4   4   4   4   4   4   4   4   4   4   4   4   4   4   4   4   4   4   4   4   4   3   3   3   3   3   3   3   3   3   3   3   2   2   2   2   2   2   2   2   2   1   1   1   1   1   1   1   1   1   1   1   1   0   0   0   0   0
  0   0   1   1   1   1   1   1   1   1   1   1   2   2   2   2   2   2   2   2   3   3   3   3   3   3   3   4   4   4   4   4   4   4   5   5   5   5   5   5   5   5   5   5   5   6   6   6   6   6   6   6   6   6   6   6   5   5   5   5   5   5   5   5   5   5   5   4   4   4   4   4   4   4   3   3   3   3   3   3   3   2   2   2   2   2   2   2   2   1   1   1   1   1   1   1   1   1   1   0
  1   1   1   1   1   1   1   1   2   2   2   2   2   2   3   3   3   3   3   3   4   4   4   4   4   5   5   5   5   5   6   6   6   6   6   6   7   7   7   7   7   7   7   7   8   8   8   8   8   8   8   8   8   8   8   8   8   7   7   7   7   7   7   7   7   6   6   6   6   6   6   5   5   5   5   5   4   4   4   4   4   3   3   3   3   3   3   2   2   2   2   2   2   1   1   1   1   1   1   1
  1   1   1   2   2   2   2   2   2   3   3   3   3   3   4   4   4   4   5   5   5   5   6   6   6   6   7   7   7   7   8   8   8   8   9   9   9   9   9  10  10  10  10  10  10  10  10  11  11  11  11  11  11  11  10  10  10  10  10  10  10  10   9   9   9   9   9   8   8   8   8   7   7   7   7   6   6   6   6   5   5   5   5   4   4   4   4   3   3   3   3   3   2   2   2   2   2   2   1   1
  2   2   2   2   2   3   3   3   3   4   4   4   4   5   5   5   6   6   6   7   7   7   8   8   8   9   9   9  10  10  10  11  11  11  12  12  12  12  13  13  13  13  14  14  14  14  14  14  14  14  14  14  14  14  14  14  14  14  14  13  13  13  13  12  12  12  12  11  11  11  10  10  10   9   9   9   8   8   8   7   7   7   6   6   6   5   5   5   4   4   4   4   3   3   3   3   2   2   2   2
  2   3   3   3   3   4   4   4   5   5   5   6   6   6   7   7   8   8   8   9   9  10  10  11  11  12  12  12  13  13  14  14  15  15  16  16  16  17  17  17  18  18  18  18  18  19  19  19  19  19  19  19  19  19  19  19  18  18  18  18  18  17  17  17  16  16  16  15  15  14  14  13  13  12  12  12  11  11  10  10   9   9   8   8   8   7   7   6   6   6   5   5   5   4   4   4   3   3   3   3
  3   4   4   4   5   5   5   6   6   7   7   7   8   8   9  10  10  11  11  12  12  13  14  14  15  15  16  17  17  18  18  19  20  20  21  21  22  22  22  23  23  24  24  24  24  25  25  25  25  25  25  25  25  25  25  25  24  24  24  24  23  23  22  22  22  21  21  20  20  19  18  18  17  17  16  15  15  14  14  13  12  12  11  11  10  10   9   8   8   7   7   7   6   6   5   5   5   4   4   4
  4   5   5   6   6   7   7   8   8   9   9  10  11  11  12  13  13  14  15  16  16  17  18  19  19  20  21  22  23  23  24  25  26  26  27  28  28  29  30  30  31  31  31  32  32  32  33  33  33  33  33  33  33  33  33  32  32  32  31  31  31  30  30  29  28  28  27  26  26  25  24  23  23  22  21  20  19  19  18  17  16  16  15  14  13  13  12  11  11  10   9   9   8   8   7   7   6   6   5   5
  6   6   7   7   8   9   9  10  11  11  12  13  14  15  16  16  17  18  19  20  21  22  23  24  25  26  28  29  30  31  32  33  34  34  35  36  37  38  39  39  40  41  41  42  42  42  43  43  43  43  43  43  43  43  43  42  42  42  41  41  40  39  39  38  37  36  35  34  34  33  32  31  30  29  28  26  25  24  23  22  21  20  19  18  17  16  16  15  14  13  12  11  11  10   9   9   8   7   7   6
  8   8   9  10  11  11  12  13  14  15  16  17  18  19  20  21  23  24  25  26  28  29  30  32  33  34  36  37  38  40  41  42  43  45  46  47  48  49  50  51  52  52  53  54  54  55  55  55  56  56  56  56  56  55  55  55  54  54  53  52  52  51  50  49  48  47  46  45  43  42  41  40  38  37  36  34  33  32  30  29  28  26  25  24  23  21  20  19  18  17  16  15  14  13  12  11  11  10   9   8
 10  11  12  13  14  15  16  17  18  19  21  22  23  25  26  28  29  31  32  34  36  37  39  41  42  44  46  48  49  51  53  54  56  57  59  60  62  63  64  65  66  67  68  69  70  70  71  71  72  72  72  72  72  71  71  70  70  69  68  67  66  65  64  63  62  60  59  57  56  54  53  51  49  48  46  44  42  41  39  37  36  34  32  31  29  28  26  25  23  22  21  19  18  17  16  15  14  13  12  11
 13  14  15  16  18  19  20  22  23  25  26  28  30  32  34  35  37  39  41  44  46  48  50  52  54  57  59  61  63  65  67  69  71  73  75  77  79  81  82  84  85  86  87  88  89  90  91  91  91  92  92  92  91  91  91  90  89  88  87  86  85  84  82  81  79  77  75  73  71  69  67  65  63  61  59  57  54  52  50  48  46  44  41  39  37  35  34  32  30  28  26  25  23  22  20  19  18  16  15  14
 17  18  19  21  22  24  26  28  30  32  34  36  38  40  43  45  48  50  53  55  58  61  63  66  69  72  75  77  80  83  85  88  91  93  96  98 100 102 104 106 108 109 111 112 113 114 115 116 116 116 116 116 116 116 115 114 113 112 111 109 108 106 104 102 100  98  96  93  91  88  85  83  80  77  75  72  69  66  63  61  58  55  53  50  48  45  43  40  38  36  34  32  30  28  26  24  22  21  19  18
 21  23  24  26  28  30  33  35  37  40  42  45  48  51  54  57  60  63  66  70  73  77  80  84  87  91  94  98 101 104 108 111 114 117 121 123 126 129 131 134 136 138 140 141 143 144 145 146 146 147 147 147 146 146 145 144 143 141 140 138 136 134 131 129 126 123 121 117 114 111 108 104 101  98  94  91  87  84  80  77  73  70  66  63  60  57  54  51  48  45  42  40  37  35  33  30  28  26  24  23
 26  29  31  33  36  38  41  44  47  50  53  57  60  64  68  71  75  79  83  88  92  96 100 105 109 114 118 122 127 131 135 139 143 147 151 155 158 162 165 168 170 173 175 177 179 181 182 183 183 184 184 184 183 183 182 181 179 177 175 173 170 168 165 162 158 155 151 147 143 139 135 131 127 122 118 114 109 105 100  96  92  88  83  79  75  71  68  64  60  57  53  50  47  44  41  38  36  33  31  29
 33  36  38  41  45  48  51  55  59  62  66  71  75  80  84  89  94  99 104 109 114 120 125 130 136 141 147 152 158 163 168 173 178 183 188 193 197 201 205 209 212 215 218 221 223 225 226 228 228 229 229 229 228 228 226 225 223 221 218 215 212 209 205 201 197 193 188 183 178 173 168 163 158 152 147 141 136 130 125 120 114 109 104  99  94  89  84  80  75  71  66  62  59  55  51  48  45  41  38  36
 41  44  48  51  55  59  63  68  73  77  82  88  93  98 104 110 116 122 129 135 142 148 155 162 168 175 182 189 195 202 208 215 221 227 233 238 244 249 254 258 262 266 270 273 276 278 280 282 283 283 284 283 283 282 280 278 276 273 270 266 262 258 254 249 244 238 233 227 221 215 208 202 195 189 182 175 168 162 155 148 142 135 129 122 116 110 104  98  93  88  82  77  73  68  63  59  55  51  48  44
 50  54  59  63  68  73  78  84  89  95 101 108 114 121 128 135 143 150 158 166 174 182 190 199 207 215 224 232 240 248 256 264 272 279 286 293 300 306 312 318 323 328 332 336 339 342 344 346 348 348 349 348 348 346 344 342 339 336 332 328 323 318 312 306 300 293 286 279 272 264 256 248 240 232 224 215 207 199 190 182 174 166 158 150 143 135 128 121 114 108 101  95  89  84  78  73  68  63  59  54
 62  67  72  77  83  89  96 102 109 116 124 132 140 148 157 166 175 184 193 203 213 223 233 243 253 263 273 283 293 303 313 323 332 341 350 358 366 374 381 388 394 400 406 410 414 418 421 423 425 426 426 426 425 423 421 418 414 410 406 400 394 388 381 374 366 358 350 341 332 323 313 303 293 283 273 263 253 243 233 223 213 203 193 184 175 166 157 148 140 132 124 116 109 102  96  89  83  77  72  67
 75  81  87  94 101 108 116 124 133 141 151 160 170 180 190 201 212 223 235 247 258 271 283 295 307 320 332 344 356 368 380 392 403 414 425 435 445 454 463 471 479 486 493 498 503 508 511 514 516 517 517 517 516 514 511 508 503 498 493 486 479 471 463 454 445 435 425 414 403 392 380 368 356 344 332 320 307 295 283 271 258 247 235 223 212 201 190 180 170 160 151 141 133 124 116 108 101  94  87  81
 91  98 105 114 122 131 140 150 160 171 182 193 205 217 230 243 256 270 284 298 312 327 341 356 371 386 401 415 430 445 459 473 487 500 513 525 537 548 559 569 578 587 594 601 607 613 617 620 623 624 625 624 623 620 617 613 607 601 594 587 578 569 559 548 537 525 513 500 487 473 459 445 430 415 401 386 371 356 341 327 312 298 284 270 256 243 230 217 205 193 182 171 160 150 140 131 122 114 105  98
109 117 127 136 146 157 168 180 192 205 218 232 246 261 276 291 307 324 340 357 374 392 409 427 445 463 481 498 516 533 550 567 584 600 615 630 644 658 670 682 694 704 713 721 729 735 740 744 747 749 749 749 747 744 740 735 729 721 713 704 694 682 670 658 644 630 615 600 584 567 550 533 516 498 481 463 445 427 409 392 374 357 340 324 307 291 276 261 246 232 218 205 192 180 168 157 146 136 127 117
130 140 151 163 175 187 201 215 229 244 260 276 293 311 329 347 366 386 406 426 446 467 488 509 530 552 573 594 615 636 656 676 696 715 733 751 768 784 799 814 827 839 850 860 869 876 882 887 890 892 893 892 890 887 882 876 869 860 850 839 827 814 799 784 768 751 733 715 696 676 656 636 615 594 573 552 530 509 488 467 446 426 406 386 366 347 329 311 293 276 260 244 229 215 201 187 175 163 151 140
154 166 179 193 207 222 238 254 272 290 308 328 348 368 390 412 434 457 481 504 529 553 578 603 628 654 679 704 729 753 777 801 824 847 869 890 910 929 947 964 980 994 1007 1019 1029 1038 1045 1051 1055 1057 1058 1057 1055 1051 1045 1038 1029 1019 1007 994 980 964 947 929 910 890 869 847 824 801 777 753 729 704 679 654 628 603 578 553 529 504 481 457 434 412 390 368 348 328 308 290 272 254 238 222 207 193 179 166
181 196 211 227 244 261 280 300 320 341 363 386 409 434 459 485 511 538 566 594 623 652 681 710 740 770 799 829 858 887 915 943 970 997 1023 1047 1071 1094 1115 1135 1153 1170 1186 1200 1212 1222 1230 1237 1242 1245 1246 1245 1242 1237 1230 1222 1212 1200 1186 1170 1153 1135 1115 1094 1071 1047 1023 997 970 943 915 887 858 829 799 770 740 710 681 652 623 594 566 538 511 485 459 434 409 386 363 341 320 300 280 261 244 227 211 196
212 229 247 266 285 306 328 351 374 399 425 451 479 508 537 567 598 630 662 695 729 763 797 831 866 901 935 970 1004 1038 1071 1104 1136 1167 1197 1226 1253 1280 1305 1328 1350 1370 1388 1404 1418 1430 1440 1448 1453 1457 1458 1457 1453 1448 1440 1430 1418 1404 1388 1370 1350 1328 1305 1280 1253 1226 1197 1167 1136 1104 1071 1038 1004 970 935 901 866 831 797 763 729 695 662 630 598 567 537 508 479 451 425 399 374 351 328 306 285 266 247 229
247 266 287 309 332 356 381 408 435 464 494 525 557 590 625 660 696 733 770 809 847 887 927 967 1007 1047 1088 1128 1168 1207 1246 1284 1321 1357 1392 1426 1458 1488 1517 1544 1570 1593 1614 1633 1649 1663 1675 1684 1690 1694 1695 1694 1690 1684 1675 1663 1649 1633 1614 1593 1570 1544 1517 1488 1458 1426 1392 1357 1321 1284 1246 1207 1168 1128 1088 1047 1007 967 927 887 847 809 770 733 696 660 625 590 557 525 494 464 435 408 381 356 332 309 287 266
285 308 332 357 384 412 441 471 503 537 571 607 644 682 722 763 804 847 890 935 980 1025 1071 1117 1164 1211 1257 1304 1350 1395 1440 1484 1527 1568 1609 1648 1685 1720 1754 1785 1814 1841 1865 1887 1906 1922 1936 1946 1953 1958 1960 1958 1953 1946 1936 1922 1906 1887 1865 1841 1814 1785 1754 1720 1685 1648 1609 1568 1527 1484 1440 1395 1350 1304 1257 1211 1164 1117 1071 1025 980 935 890 847 804 763 722 682 644 607 571 537 503 471 441 412 384 357 332 308
328 354 381 410 441 473 506 542 578 616 656 697 740 784 829 876 924 973 1023 1074 1125 1178 1230 1284 1337 1391 1444 1498 1550 1603 1654 1704 1754 1802 1848 1893 1936 1976 2015 2051 2084 2115 2143 2168 2189 2208 2223 2235 2244 2249 2251 2249 2244 2235 2223 2208 2189 2168 2143 2115 2084 2051 2015 1976 1936 1893 1848 1802 1754 1704 1654 1603 1550 1498 1444 1391 1337 1284 1230 1178 1125 1074 1023 973 924 876 829 784 740 697 656 616 578 542 506 473 441 410 381 354
374 404 435 468 503 540 578 618 660 704 749 796 845 895 947 1000 1055 1111 1168 1226 1285 1344 1405 1466 1527 1588 1649 1710 1770 1830 1888 1946 2002 2057 2110 2161 2210 2256 2300 2341 2379 2414 2446 2475 2500 2521 2538 2552 2562 2568 2570 2568 2562 2552 2538 2521 2500 2475 2446 2414 2379 2341 2300 2256 2210 2161 2110 2057 2002 1946 1888 1830 1770 1710 1649 1588 1527 1466 1405 1344 1285 1226 1168 1111 1055 1000 947 895 845 796 749 704 660 618 578 540 503 468 435 404
425 458 494 532 571 613 656 702 749 799 850 903 959 1016 1074 1135 1197 1260 1325 1391 1458 1525 1594 1663 1732 1802 1871 1940 2008 2076 2143 2208 2272 2334 2394 2452 2507 2560 2610 2656 2700 2740 2776 2808 2836 2860 2880 2896 2907 2914 2916 2914 2907 2896 2880 2860 2836 2808 2776 2740 2700 2656 2610 2560 2507 2452 2394 2334 2272 2208 2143 2076 2008 1940 1871 1802 1732 1663 1594 1525 1458 1391 1325 1260 1197 1135 1074 1016 959 903 850 799 749 702 656 613 571 532 494 458
479 517 557 600 644 691 740 791 845 901 959 1019 1081 1145 1212 1280 1350 1421 1494 1568 1644 1720 1798 1875 1953 2032 2110 2188 2265 2341 2416 2490 2562 2632 2700 2765 2827 2887 2943 2996 3044 3089 3130 3166 3198 3225 3248 3265 3278 3286 3288 3286 3278 3265 3248 3225 3198 3166 3130 3089 3044 2996 2943 2887 2827 2765 2700 2632 2562 2490 2416 2341 2265 2188 2110 2032 1953 1875 1798 1720 1644 1568 1494 1421 1350 1280 1212 1145 1081 1019 959 901 845 791 740 691 644 600 557 517
537 580 625 672 722 774 829 887 947 1009 1074 1142 1212 1284 1358 1434 1513 1593 1675 1758 1842 1928 2015 2102 2189 2277 2365 2452 2538 2624 2708 2791 2871 2950 3026 3099 3169 3235 3298 3357 3412 3462 3508 3549 3584 3615 3640 3660 3674 3682 3685 3682 3674 3660 3640 3615 3584 3549 3508 3462 3412 3357 3298 3235 3169 3099 3026 2950 2871 2791 2708 2624 2538 2452 2365 2277 2189 2102 2015 1928 1842 1758 1675 1593 1513 1434 1358 1284 1212 1142 1074 1009 947 887 829 774 722 672 625 580
598 646 696 749 804 863 924 988 1055 1124 1197 1272 1350 1430 1513 1598 1685 1774 1865 1958 2052 2148 2244 2341 2439 2536 2634 2731 2827 2923 3016 3108 3198 3286 3370 3452 3530 3604 3674 3740 3801 3857 3907 3953 3993 4027 4055 4076 4092 4102 4105 4102 4092 4076 4055 4027 3993 3953 3907 3857 3801 3740 3674 3604 3530 3452 3370 3286 3198 3108 3016 2923 2827 2731 2634 2536 2439 2341 2244 2148 2052 1958 1865 1774 1685 1598 1513 1430 1350 1272 1197 1124 1055 988 924 863 804 749 696 646
662 715 770 829 890 955 1023 1094 1168 1245 1325 1408 1494 1583 1675 1769 1865 1964 2065 2168 2272 2377 2484 2592 2700 2808 2916 3023 3130 3235 3339 3441 3541 3637 3731 3821 3907 3990 4067 4140 4207 4269 4326 4376 4420 4457 4488 4513 4530 4541 4544 4541 4530 4513 4488 4457 4420 4376 4326 4269 4207 4140 4067 3990 3907 3821 3731 3637 3541 3441 3339 3235 3130 3023 2916 2808 2700 2592 2484 2377 2272 2168 2065 1964 1865 1769 1675 1583 1494 1408 1325 1245 1168 1094 1023 955 890 829 770 715
729 786 847 912 980 1051 1125 1203 1285 1370 1458 1549 1644 1742 1842 1946 2052 2161 2272 2385 2500 2616 2733 2851 2970 3089 3208 3326 3444 3560 3674 3786 3895 4002 4105 4204 4299 4389 4475 4555 4629 4697 4759 4814 4863 4904 4938 4965 4984 4996 5000 4996 4984 4965 4938 4904 4863 4814 4759 4697 4629 4555 4475 4389 4299 4204 4105 4002 3895 3786 3674 3560 3444 3326 3208 3089 2970 2851 2733 2616 2500 2385 2272 2161 2052 1946 1842 1742 1644 1549 1458 1370 1285 1203 1125 1051 980 912 847 786
797 860 927 997 1071 1149 1230 1316 1405 1498 1594 1694 1798 1904 2015 2128 2244 2363 2484 2608 2733 2860 2989 3118 3248 3378 3508 3637 3766 3892 4017 4140 4259 4376 4488 4597 4701 4800 4893 4980 5062 5136 5204 5264 5317 5363 5400 5429 5450 5463 5467 5463 5450 5429 5400 5363 5317 5264 5204 5136 5062 4980 4893 4800 4701 4597 4488 4376 4259 4140 4017 3892 3766 3637 3508 3378 3248 3118 2989 2860 2733 2608 2484 2363 2244 2128 2015 1904 1798 1694 1594 1498 1405 1316 1230 1149 1071 997 927 860
866 935 1007 1084 1164 1249 1337 1430 1527 1627 1732 1841 1953 2070 2189 2312 2439 2568 2700 2834 2970 3108 3248 3388 3530 3671 3812 3953 4092 4230 4366 4499 4629 4755 4878 4996 5109 5216 5317 5412 5501 5582 5655 5721 5779 5828 5868 5900 5923 5936 5941 5936 5923 5900 5868 5828 5779 5721 5655 5582 5501 5412 5317 5216 5109 4996 4878 4755 4629 4499 4366 4230 4092 3953 3812 3671 3530 3388 3248 3108 2970 2834 2700 2568 2439 2312 2189 2070 1953 1841 1732 1627 1527 1430 1337 1249 1164 1084 1007 935
935 1009 1088 1170 1257 1349 1444 1544 1649 1758 1871 1988 2110 2235 2365 2498 2634 2773 2916 3061 3208 3357 3508 3660 3812 3965 4118 4269 4420 4569 4715 4859 5000 5136 5268 5396 5518 5634 5743 5846 5941 6029 6108 6179 6241 6294 6338 6372 6397 6412 6417 6412 6397 6372 6338 6294 6241 6179 6108 6029 5941 5846 5743 5634 5518 5396 5268 5136 5000 4859 4715 4569 4420 4269 4118 3965 3812 3660 3508 3357 3208 3061 2916 2773 2634 2498 2365 2235 2110 1988 1871 1758 1649 1544 1444 1349 1257 1170 1088 1009
1004 1084 1168 1256 1350 1448 1550 1658 1770 1887 2008 2134 2265 2400 2538 2681 2827 2977 3130 3286 3444 3604 3766 3929 4092 4256 4420 4583 4744 4904 5062 5216 5367 5513 5655 5792 5923 6047 6165 6275 6377 6471 6557 6633 6699 6756 6803 6840 6867 6883 6888 6883 6867 6840 6803 6756 6699 6633 6557 6471 6377 6275 6165 6047 5923 5792 5655 5513 5367 5216 5062 4904 4744 4583 4420 4256 4092 3929 3766 3604 3444 3286 3130 2977 2827 2681 2538 2400 2265 2134 2008 1887 1770 1658 1550 1448 1350 1256 1168 1084
1071 1156 1246 1340 1440 1544 1654 1769 1888 2013 2143 2277 2416 2560 2708 2860 3016 3176 3339 3505 3674 3845 4017 4191 4366 4541 4715 4889 5062 5232 5400 5565 5725 5882 6033 6179 6319 6451 6577 6694 6803 6904 6995 7076 7147 7208 7258 7297 7326 7343 7348 7343 7326 7297 7258 7208 7147 7076 6995 6904 6803 6694 6577 6451 6319 6179 6033 5882 5725 5565 5400 5232 5062 4889 4715 4541 4366 4191 4017 3845 3674 3505 3339 3176 3016 2860 2708 2560 2416 2277 2143 2013 1888 1769 1654 1544 1440 1340 1246 1156
1136 1226 1321 1421 1527 1638 1754 1875 2002 2134 2272 2414 2562 2714 2871 3033 3198 3368 3541 3717 3895 4076 4259 4444 4629 4814 5000 5184 5367 5547 5725 5900 6071 6236 6397 6552 6699 6840 6973 7098 7214 7320 7416 7503 7578 7643 7696 7737 7767 7785 7791 7785 7767 7737 7696 7643 7578 7503 7416 7320 7214 7098 6973 6840 6699 6552 6397 6236 6071 5900 5725 5547 5367 5184 5000 4814 4629 4444 4259 4076 3895 3717 3541 3368 3198 3033 2871 2714 2562 2414 2272 2134 2002 1875 1754 1638 1527 1421 1321 1226
1197 1292 1392 1498 1609 1726 1848 1976 2110 2249 2394 2544 2700 2860 3026 3196 3370 3549 3731 3916 4105 4296 4488 4683 4878 5073 5268 5463 5655 5846 6033 6217 6397 6572 6741 6904 7060 7208 7348 7480 7602 7714 7815 7906 7986 8054 8110 8153 8185 8204 8210 8204 8185 8153 8110 8054 7986 7906 7815 7714 7602 7480 7348 7208 7060 6904 6741 6572 6397 6217 6033 5846 5655 5463 5268 5073 4878 4683 4488 4296 4105 3916 3731 3549 3370 3196 3026 2860 2700 2544 2394 2249 2110 1976 1848 1726 1609 1498 1392 1292
1253 1353 1458 1568 1685 1807 1936 2070 2210 2356 2507 2665 2827 2996 3169 3347 3530 3717 3907 4102 4299 4499 4701 4904 5109 5313 5518 5721 5923 6122 6319 6511 6699 6883 7060 7230 7394 7549 7696 7833 7961 8078 8185 8280 8363 8434 8493 8539 8572 8592 8598 8592 8572 8539 8493 8434 8363 8280 8185 8078 7961 7833 7696 7549 7394 7230 7060 6883 6699 6511 6319 6122 5923 5721 5518 5313 5109 4904 4701 4499 4299 4102 3907 3717 3530 3347 3169 2996 2827 2665 2507 2356 2210 2070 1936 1807 1685 1568 1458 1353
1305 1408 1517 1633 1754 1881 2015 2154 2300 2452 2610 2773 2943 3118 3298 3484 3674 3868 4067 4269 4475 4683 4893 5105 5317 5530 5743 5955 6165 6372 6577 6777 6973 7164 7348 7526 7696 7857 8010 8153 8286 8408 8519 8618 8705 8779 8840 8888 8922 8943 8950 8943 8922 8888 8840 8779 8705 8618 8519 8408 8286 8153 8010 7857 7696 7526 7348 7164 6973 6777 6577 6372 6165 5955 5743 5530 5317 5105 4893 4683 4475 4269 4067 3868 3674 3484 3298 3118 2943 2773 2610 2452 2300 2154 2015 1881 1754 1633 1517 1408
1350 1457 1570 1689 1814 1946 2084 2229 2379 2536 2700 2869 3044 3225 3412 3604 3801 4002 4207 4416 4629 4844 5062 5281 5501 5721 5941 6160 6377 6592 6803 7011 7214 7411 7602 7785 7961 8128 8286 8434 8572 8698 8813 8915 9005 9082 9145 9194 9230 9251 9258 9251 9230 9194 9145 9082 9005 8915 8813 8698 8572 8434 8286 8128 7961 7785 7602 7411 7214 7011 6803 6592 6377 6160 5941 5721 5501 5281 5062 4844 4629 4416 4207 4002 3801 3604 3412 3225 3044 2869 2700 2536 2379 2229 2084 1946 1814 1689 1570 1457
1388 1498 1614 1736 1865 2001 2143 2291 2446 2608 2776 2950 3130 3316 3508 3705 3907 4114 4326 4541 4759 4980 5204 5429 5655 5882 6108 6333 6557 6777 6995 7208 7416 7619 7815 8004 8185 8357 8519 8672 8813 8943 9061 9166 9258 9337 9402 9453 9489 9511 9519 9511 9489 9453 9402 9337 9258 9166 9061 8943 8813 8672 8519 8357 8185 8004 7815 7619 7416 7208 6995 6777 6557 6333 6108 5882 5655 5429 5204 4980 4759 4541 4326 4114 3907 3705 3508 3316 3130 2950 2776 2608 2446 2291 2143 2001 1865 1736 1614 1498
1418 1530 1649 1774 1906 2044 2189 2341 2500 2665 2836 3014 3198 3388 3584 3786 3993 4204 4420 4640 4863 5089 5317 5547 5779 6010 6241 6471 6699 6925 7147 7365 7578 7785 7986 8179 8363 8539 8705 8861 9005 9138 9258 9366 9460 9541 9607 9659 9696 9719 9726 9719 9696 9659 9607 9541 9460 9366 9258 9138 9005 8861 8705 8539 8363 8179 7986 7785 7578 7365 7147 6925 6699 6471 6241 6010 5779 5547 5317 5089 4863 4640 4420 4204 3993 3786 3584 3388 3198 3014 2836 2665 2500 2341 2189 2044 1906 1774 1649 1530
1440 1554 1675 1802 1936 2076 2223 2377 2538 2706 2880 3061 3248 3441 3640 3845 4055 4269 4488 4712 4938 5168 5400 5634 5868 6103 6338 6572 6803 7033 7258 7480 7696 7906 8110 8306 8493 8672 8840 8998 9145 9280 9402 9511 9607 9689 9756 9809 9847 9869 9877 9869 9847 9809 9756 9689 9607 9511 9402 9280 9145 8998 8840 8672 8493 8306 8110 7906 7696 7480 7258 7033 6803 6572 6338 6103 5868 5634 5400 5168 4938 4712 4488 4269 4055 3845 3640 3441 3248 3061 2880 2706 2538 2377 2223 2076 1936 1802 1675 1554
1453 1568 1690 1818 1953 2095 2244 2400 2562 2731 2907 3089 3278 3473 3674 3880 4092 4309 4530 4755 4984 5216 5450 5686 5923 6160 6397 6633 6867 7098 7326 7549 7767 7979 8185 8383 8572 8752 8922 9082 9230 9366 9489 9600 9696 9779 9847 9900 9938 9961 9969 9961 9938 9900 9847 9779 9696 9600 9489 9366 9230 9082 8922 8752 8572 8383 8185 7979 7767 7549 7326 7098 6867 6633 6397 6160 5923 5686 5450 5216 4984 4755 4530 4309 4092 3880 3674 3473 3278 3089 2907 2731 2562 2400 2244 2095 1953 1818 1690 1568
1458 1573 1695 1824 1960 2102 2251 2407 2570 2740 2916 3099 3288 3484 3685 3892 4105 4322 4544 4770 5000 5232 5467 5703 5941 6179 6417 6653 6888 7120 7348 7572 7791 8004 8210 8408 8598 8779 8950 9110 9258 9395 9519 9629 9726 9809 9877 9930 9969 9992 10000 9992 9969 9930 9877 9809 9726 9629 9519 9395 9258 9110 8950 8779 8598 8408 8210 8004 7791 7572 7348 7120 6888 6653 6417 6179 5941 5703 5467 5232 5000 4770 4544 4322 4105 3892 3685 3484 3288 3099 2916 2740 2570 2407 2251 2102 1960 1824 1695 1573
1453 1568 1690 1818 1953 2095 2244 2400 2562 2731 2907 3089 3278 3473 3674 3880 4092 4309 4530 4755 4984 5216 5450 5686 5923 6160 6397 6633 6867 7098 7326 7549 7767 7979 8185 8383 8572 8752 8922 9082 9230 9366 9489 9600 9696 9779 9847 9900 9938 9961 9969 9961 9938 9900 9847 9779 9696 9600 9489 9366 9230 9082 8922 8752 8572 8383 8185 7979 7767 7549 7326 7098 6867 6633 6397 6160 5923 5686 5450 5216 4984 4755 4530 4309 4092 3880 3674 3473 3278 3089 2907 2731 2562 2400 2244 2095 1953 1818 1690 1568
1440 1554 1675 1802 1936 2076 2223 2377 2538 2706 2880 3061 3248 3441 3640 3845 4055 4269 4488 4712 4938 5168 5400 5634 5868 6103 6338 6572 6803 7033 7258 7480 7696 7906 8110 8306 8493 8672 8840 8998 9145 9280 9402 9511 9607 9689 9756 9809 9847 9869 9877 9869 9847 9809 9756 9689 9607 9511 9402 9280 9145 8998 8840 8672 8493 8306 8110 7906 7696 7480 7258 7033 6803 6572 6338 6103 5868 5634 5400 5168 4938 4712 4488 4269 4055 3845 3640 3441 3248 3061 2880 2706 2538 2377 2223 2076 1936 1802 1675 1554
1418 1530 1649 1774 1906 2044 2189 2341 2500 2665 2836 3014 3198 3388 3584 3786 3993 4204 4420 4640 4863 5089 5317 5547 5779 6010 6241 6471 6699 6925 7147 7365 7578 7785 7986 8179 8363 8539 8705 8861 9005 9138 9258 9366 9460 9541 9607 9659 9696 9719 9726 9719 9696 9659 9607 9541 9460 9366 9258 9138 9005 8861 8705 8539 8363 8179 7986 7785 7578 7365 7147 6925 6699 6471 6241 6010 5779 5547 5317 5089 4863 4640 4420 4204 3993 3786 3584 3388 3198 3014 2836 2665 2500 2341 2189 2044 1906 1774 1649 1530
1388 1498 1614 1736 1865 2001 2143 2291 2446 2608 2776 2950 3130 3316 3508 3705 3907 4114 4326 4541 4759 4980 5204 5429 5655 5882 6108 6333 6557 6777 6995 7208 7416 7619 7815 8004 8185 8357 8519 8672 8813 8943 9061 9166 9258 9337 9402 9453 9489 9511 9519 9511 9489 9453 9402 9337 9258 9166 9061 8943 8813 8672 8519 8357 8185 8004 7815 7619 7416 7208 6995 6777 6557 6333 6108 5882 5655 5429 5204 4980 4759 4541 4326 4114 3907 3705 3508 3316 3130 2950 2776 2608 2446 2291 2143 2001 1865 1736 1614 1498
1350 1457 1570 1689 1814 1946 2084 2229 2379 2536 2700 2869 3044 3225 3412 3604 3801 4002 4207 4416 4629 4844 5062 5281 5501 5721 5941 6160 6377 6592 6803 7011 7214 7411 7602 7785 7961 8128 8286 8434 8572 8698 8813 8915 9005 9082 9145 9194 9230 9251 9258 9251 9230 9194 9145 9082 9005 8915 8813 8698 8572 8434 8286 8128 7961 7785 7602 7411 7214 7011 6803 6592 6377 6160 5941 5721 5501 5281 5062 4844 4629 4416 4207 4002 3801 3604 3412 3225 3044 2869 2700 2536 2379 2229 2084 1946 1814 1689 1570 1457
1305 1408 1517 1633 1754 1881 2015 2154 2300 2452 2610 2773 2943 3118 3298 3484 3674 3868 4067 4269 4475 4683 4893 5105 5317 5530 5743 5955 6165 6372 6577 6777 6973 7164 7348 7526 7696 7857 8010 8153 8286 8408 8519 8618 8705 8779 8840 8888 8922 8943 8950 8943 8922 8888 8840 8779 8705 8618 8519 8408 8286 8153 8010 7857 7696 7526 7348 7164 6973 6777 6577 6372 6165 5955 5743 5530 5317 5105 4893 4683 4475 4269 4067 3868 3674 3484 3298 3118 2943 2773 2610 2452 2300 2154 2015 1881 1754 1633 1517 1408
1253 1353 1458 1568 1685 1807 1936 2070 2210 2356 2507 2665 2827 2996 3169 3347 3530 3717 3907 4102 4299 4499 4701 4904 5109 5313 5518 5721 5923 6122 6319 6511 6699 6883 7060 7230 7394 7549 7696 7833 7961 8078 8185 8280 8363 8434 8493 8539 8572 8592 8598 8592 8572 8539 8493 8434 8363 8280 8185 8078 7961 7833 7696 7549 7394 7230 7060 6883 6699 6511 6319 6122 5923 5721 5518 5313 5109 4904 4701 4499 4299 4102 3907 3717 3530 3347 3169 2996 2827 2665 2507 2356 2210 2070 1936 1807 1685 1568 1458 1353
1197 1292 1392 1498 1609 1726 1848 1976 2110 2249 2394 2544 2700 2860 3026 3196 3370 3549 3731 3916 4105 4296 4488 4683 4878 5073 5268 5463 5655 5846 6033 6217 6397 6572 6741 6904 7060 7208 7348 7480 7602 7714 7815 7906 7986 8054 8110 8153 8185 8204 8210 8204 8185 8153 8110 8054 7986 7906 7815 7714 7602 7480 7348 7208 7060 6904 6741 6572 6397 6217 6033 5846 5655 5463 5268 5073 4878 4683 4488 4296 4105 3916 3731 3549 3370 3196 3026 2860 2700 2544 2394 2249 2110 1976 1848 1726 1609 1498 1392 1292
1136 1226 1321 1421 1527 1638 1754 1875 2002 2134 2272 2414 2562 2714 2871 3033 3198 3368 3541 3717 3895 4076 4259 4444 4629 4814 5000 5184 5367 5547 5725 5900 6071 6236 6397 6552 6699 6840 6973 7098 7214 7320 7416 7503 7578 7643 7696 7737 7767 7785 7791 7785 7767 7737 7696 7643 7578 7503 7416 7320 7214 7098 6973 6840 6699 6552 6397 6236 6071 5900 5725 5547 5367 5184 5000 4814 4629 4444 4259 4076 3895 3717 3541 3368 3198 3033 2871 2714 2562 2414 2272 2134 2002 1875 1754 1638 1527 1421 1321 1226
1071 1156 1246 1340 1440 1544 1654 1769 1888 2013 2143 2277 2416 2560 2708 2860 3016 3176 3339 3505 3674 3845 4017 4191 4366 4541 4715 4889 5062 5232 5400 5565 5725 5882 6033 6179 6319 6451 6577 6694 6803 6904 6995 7076 7147 7208 7258 7297 7326 7343 7348 7343 7326 7297 7258 7208 7147 7076 6995 6904 6803 6694 6577 6451 6319 6179 6033 5882 5725 5565 5400 5232 5062 4889 4715 4541 4366 4191 4017 3845 3674 3505 3339 3176 3016 2860 2708 2560 2416 2277 2143 2013 1888 1769 1654 1544 1440 1340 1246 1156
1004 1084 1168 1256 1350 1448 1550 1658 1770 1887 2008 2134 2265 2400 2538 2681 2827 2977 3130 3286 3444 3604 3766 3929 4092 4256 4420 4583 4744 4904 5062 5216 5367 5513 5655 5792 5923 6047 6165 6275 6377 6471 6557 6633 6699 6756 6803 6840 6867 6883 6888 6883 6867 6840 6803 6756 6699 6633 6557 6471 6377 6275 6165 6047 5923 5792 5655 5513 5367 5216 5062 4904 4744 4583 4420 4256 4092 3929 3766 3604 3444 3286 3130 2977 2827 2681 2538 2400 2265 2134 2008 1887 1770 1658 1550 1448 1350 1256 1168 1084
935 1009 1088 1170 1257 1349 1444 1544 1649 1758 1871 1988 2110 2235 2365 2498 2634 2773 2916 3061 3208 3357 3508 3660 3812 3965 4118 4269 4420 4569 4715 4859 5000 5136 5268 5396 5518 5634 5743 5846 5941 6029 6108 6179 6241 6294 6338 6372 6397 6412 6417 6412 6397 6372 6338 6294 6241 6179 6108 6029 5941 5846 5743 5634 5518 5396 5268 5136 5000 4859 4715 4569 4420 4269 4118 3965 3812 3660 3508 3357 3208 3061 2916 2773 2634 2498 2365 2235 2110 1988 1871 1758 1649 1544 1444 1349 1257 1170 1088 1009
866 935 1007 1084 1164 1249 1337 1430 1527 1627 1732 1841 1953 2070 2189 2312 2439 2568 2700 2834 2970 3108 3248 3388 3530 3671 3812 3953 4092 4230 4366 4499 4629 4755 4878 4996 5109 5216 5317 5412 5501 5582 5655 5721 5779 5828 5868 5900 5923 5936 5941 5936 5923 5900 5868 5828 5779 5721 5655 5582 5501 5412 5317 5216 5109 4996 4878 4755 4629 4499 4366 4230 4092 3953 3812 3671 3530 3388 3248 3108 2970 2834 2700 2568 2439 2312 2189 2070 1953 1841 1732 1627 1527 1430 1337 1249 1164 1084 1007 935
797 860 927 997 1071 1149 1230 1316 1405 1498 1594 1694 1798 1904 2015 2128 2244 2363 2484 2608 2733 2860 2989 3118 3248 3378 3508 3637 3766 3892 4017 4140 4259 4376 4488 4597 4701 4800 4893 4980 5062 5136 5204 5264 5317 5363 5400 5429 5450 5463 5467 5463 5450 5429 5400 5363 5317 5264 5204 5136 5062 4980 4893 4800 4701 4597 4488 4376 4259 4140 4017 3892 3766 3637 3508 3378 3248 3118 2989 2860 2733 2608 2484 2363 2244 2128 2015 1904 1798 1694 1594 1498 1405 1316 1230 1149 1071 997 927 860
729 786 847 912 980 1051 1125 1203 1285 1370 1458 1549 1644 1742 1842 1946 2052 2161 2272 2385 2500 2616 2733 2851 2970 3089 3208 3326 3444 3560 3674 3786 3895 4002 4105 4204 4299 4389 4475 4555 4629 4697 4759 4814 4863 4904 4938 4965 4984 4996 5000 4996 4984 4965 4938 4904 4863 4814 4759 4697 4629 4555 4475 4389 4299 4204 4105 4002 3895 3786 3674 3560 3444 3326 3208 3089 2970 2851 2733 2616 2500 2385 2272 2161 2052 1946 1842 1742 1644 1549 1458 1370 1285 1203 1125 1051 980 912 847 786
662 715 770 829 890 955 1023 1094 1168 1245 1325 1408 1494 1583 1675 1769 1865 1964 2065 2168 2272 2377 2484 2592 2700 2808 2916 3023 3130 3235 3339 3441 3541 3637 3731 3821 3907 3990 4067 4140 4207 4269 4326 4376 4420 4457 4488 4513 4530 4541 4544 4541 4530 4513 4488 4457 4420 4376 4326 4269 4207 4140 4067 3990 3907 3821 3731 3637 3541 3441 3339 3235 3130 3023 2916 2808 2700 2592 2484 2377 2272 2168 2065 1964 1865 1769 1675 1583 1494 1408 1325 1245 1168 1094 1023 955 890 829 770 715
598 646 696 749 804 863 924 988 1055 1124 1197 1272 1350 1430 1513 1598 1685 1774 1865 1958 2052 2148 2244 2341 2439 2536 2634 2731 2827 2923 3016 3108 3198 3286 3370 3452 3530 3604 3674 3740 3801 3857 3907 3953 3993 4027 4055 4076 4092 4102 4105 4102 4092 4076 4055 4027 3993 3953 3907 3857 3801 3740 3674 3604 3530 3452 3370 3286 3198 3108 3016 2923 2827 2731 2634 2536 2439 2341 2244 2148 2052 1958 1865 1774 1685 1598 1513 1430 1350 1272 1197 1124 1055 988 924 863 804 749 696 646
537 580 625 672 722 774 829 887 947 1009 1074 1142 1212 1284 1358 1434 1513 1593 1675 1758 1842 1928 2015 2102 2189 2277 2365 2452 2538 2624 2708 2791 2871 2950 3026 3099 3169 3235 3298 3357 3412 3462 3508 3549 3584 3615 3640 3660 3674 3682 3685 3682 3674 3660 3640 3615 3584 3549 3508 3462 3412 3357 3298 3235 3169 3099 3026 2950 2871 2791 2708 2624 2538 2452 2365 2277 2189 2102 2015 1928 1842 1758 1675 1593 1513 1434 1358 1284 1212 1142 1074 1009 947 887 829 774 722 672 625 580
479 517 557 600 644 691 740 791 845 901 959 1019 1081 1145 1212 1280 1350 1421 1494 1568 1644 1720 1798 1875 1953 2032 2110 2188 2265 2341 2416 2490 2562 2632 2700 2765 2827 2887 2943 2996 3044 3089 3130 3166 3198 3225 3248 3265 3278 3286 3288 3286 3278 3265 3248 3225 3198 3166 3130 3089 3044 2996 2943 2887 2827 2765 2700 2632 2562 2490 2416 2341 2265 2188 2110 2032 1953 1875 1798 1720 1644 1568 1494 1421 1350 1280 1212 1145 1081 1019 959 901 845 791 740 691 644 600 557 517
425 458 494 532 571 613 656 702 749 799 850 903 959 1016 1074 1135 1197 1260 1325 1391 1458 1525 1594 1663 1732 1802 1871 1940 2008 2076 2143 2208 2272 2334 2394 2452 2507 2560 2610 2656 2700 2740 2776 2808 2836 2860 2880 2896 2907 2914 2916 2914 2907 2896 2880 2860 2836 2808 2776 2740 2700 2656 2610 2560 2507 2452 2394 2334 2272 2208 2143 2076 2008 1940 1871 1802 1732 1663 1594 1525 1458 1391 1325 1260 1197 1135 1074 1016 959 903 850 799 749 702 656 613 571 532 494 458
374 404 435 468 503 540 578 618 660 704 749 796 845 895 947 1000 1055 1111 1168 1226 1285 1344 1405 1466 1527 1588 1649 1710 1770 1830 1888 1946 2002 2057 2110 2161 2210 2256 2300 2341 2379 2414 2446 2475 2500 2521 2538 2552 2562 2568 2570 2568 2562 2552 2538 2521 2500 2475 2446 2414 2379 2341 2300 2256 2210 2161 2110 2057 2002 1946 1888 1830 1770 1710 1649 1588 1527 1466 1405 1344 1285 1226 1168 1111 1055 1000 947 895 845 796 749 704 660 618 578 540 503 468 435 404
328 354 381 410 441 473 506 542 578 616 656 697 740 784 829 876 924 973 1023 1074 1125 1178 1230 1284 1337 1391 1444 1498 1550 1603 1654 1704 1754 1802 1848 1893 1936 1976 2015 2051 2084 2115 2143 2168 2189 2208 2223 2235 2244 2249 2251 2249 2244 2235 2223 2208 2189 2168 2143 2115 2084 2051 2015 1976 1936 1893 1848 1802 1754 1704 1654 1603 1550 1498 1444 1391 1337 1284 1230 1178 1125 1074 1023 973 924 876 829 784 740 697 656 616 578 542 506 473 441 410 381 354
285 308 332 357 384 412 441 471 503 537 571 607 644 682 722 763 804 847 890 935 980 1025 1071 1117 1164 1211 1257 1304 1350 1395 1440 1484 1527 1568 1609 1648 1685 1720 1754 1785 1814 1841 1865 1887 1906 1922 1936 1946 1953 1958 1960 1958 1953 1946 1936 1922 1906 1887 1865 1841 1814 1785 1754 1720 1685 1648 1609 1568 1527 1484 1440 1395 1350 1304 1257 1211 1164 1117 1071 1025 980 935 890 847 804 763 722 682 644 607 571 537 503 471 441 412 384 357 332 308
247 266 287 309 332 356 381 408 435 464 494 525 557 590 625 660 696 733 770 809 847 887 927 967 1007 1047 1088 1128 1168 1207 1246 1284 1321 1357 1392 1426 1458 1488 1517 1544 1570 1593 1614 1633 1649 1663 1675 1684 1690 1694 1695 1694 1690 1684 1675 1663 1649 1633 1614 1593 1570 1544 1517 1488 1458 1426 1392 1357 1321 1284 1246 1207 1168 1128 1088 1047 1007 967 927 887 847 809 770 733 696 660 625 590 557 525 494 464 435 408 381 356 332 309 287 266
212 229 247 266 285 306 328 351 374 399 425 451 479 508 537 567 598 630 662 695 729 763 797 831 866 901 935 970 1004 1038 1071 1104 1136 1167 1197 1226 1253 1280 1305 1328 1350 1370 1388 1404 1418 1430 1440 1448 1453 1457 1458 1457 1453 1448 1440 1430 1418 1404 1388 1370 1350 1328 1305 1280 1253 1226 1197 1167 1136 1104 1071 1038 1004 970 935 901 866 831 797 763 729 695 662 630 598 567 537 508 479 451 425 399 374 351 328 306 285 266 247 229
181 196 211 227 244 261 280 300 320 341 363 386 409 434 459 485 511 538 566 594 623 652 681 710 740 770 799 829 858 887 915 943 970 997 1023 1047 1071 1094 1115 1135 1153 1170 1186 1200 1212 1222 1230 1237 1242 1245 1246 1245 1242 1237 1230 1222 1212 1200 1186 1170 1153 1135 1115 1094 1071 1047 1023 997 970 943 915 887 858 829 799 770 740 710 681 652 623 594 566 538 511 485 459 434 409 386 363 341 320 300 280 261 244 227 211 196
154 166 179 193 207 222 238 254 272 290 308 328 348 368 390 412 434 457 481 504 529 553 578 603 628 654 679 704 729 753 777 801 824 847 869 890 910 929 947 964 980 994 1007 1019 1029 1038 1045 1051 1055 1057 1058 1057 1055 1051 1045 1038 1029 1019 1007 994 980 964 947 929 910 890 869 847 824 801 777 753 729 704 679 654 628 603 578 553 529 504 481 457 434 412 390 368 348 328 308 290 272 254 238 222 207 193 179 166
130 140 151 163 175 187 201 215 229 244 260 276 293 311 329 347 366 386 406 426 446 467 488 509 530 552 573 594 615 636 656 676 696 715 733 751 768 784 799 814 827 839 850 860 869 876 882 887 890 892 893 892 890 887 882 876 869 860 850 839 827 814 799 784 768 751 733 715 696 676 656 636 615 594 573 552 530 509 488 467 446 426 406 386 366 347 329 311 293 276 260 244 229 215 201 187 175 163 151 140
109 117 127 136 146 157 168 180 192 205 218 232 246 261 276 291 307 324 340 357 374 392 409 427 445 463 481 498 516 533 550 567 584 600 615 630 644 658 670 682 694 704 713 721 729 735 740 744 747 749 749 749 747 744 740 735 729 721 713 704 694 682 670 658 644 630 615 600 584 567 550 533 516 498 481 463 445 427 409 392 374 357 340 324 307 291 276 261 246 232 218 205 192 180 168 157 146 136 127 117
 91  98 105 114 122 131 140 150 160 171 182 193 205 217 230 243 256 270 284 298 312 327 341 356 371 386 401 415 430 445 459 473 487 500 513 525 537 548 559 569 578 587 594 601 607 613 617 620 623 624 625 624 623 620 617 613 607 601 594 587 578 569 559 548 537 525 513 500 487 473 459 445 430 415 401 386 371 356 341 327 312 298 284 270 256 243 230 217 205 193 182 171 160 150 140 131 122 114 105  98
 75  81  87  94 101 108 116 124 133 141 151 160 170 180 190 201 212 223 235 247 258 271 283 295 307 320 332 344 356 368 380 392 403 414 425 435 445 454 463 471 479 486 493 498 503 508 511 514 516 517 517 517 516 514 511 508 503 498 493 486 479 471 463 454 445 435 425 414 403 392 380 368 356 344 332 320 307 295 283 271 258 247 235 223 212 201 190 180 170 160 151 141 133 124 116 108 101  94  87  81
 62  67  72  77  83  89  96 102 109 116 124 132 140 148 157 166 175 184 193 203 213 223 233 243 253 263 273 283 293 303 313 323 332 341 350 358 366 374 381 388 394 400 406 410 414 418 421 423 425 426 426 426 425 423 421 418 414 410 406 400 394 388 381 374 366 358 350 341 332 323 313 303 293 283 273 263 253 243 233 223 213 203 193 184 175 166 157 148 140 132 124 116 109 102  96  89  83  77  72  67
 50  54  59  63  68  73  78  84  89  95 101 108 114 121 128 135 143 150 158 166 174 182 190 199 207 215 224 232 240 248 256 264 272 279 286 293 300 306 312 318 323 328 332 336 339 342 344 346 348 348 349 348 348 346 344 342 339 336 332 328 323 318 312 306 300 293 286 279 272 264 256 248 240 232 224 215 207 199 190 182 174 166 158 150 143 135 128 121 114 108 101  95  89  84  78  73  68  63  59  54
 41  44  48  51  55  59  63  68  73  77  82  88  93  98 104 110 116 122 129 135 142 148 155 162 168 175 182 189 195 202 208 215 221 227 233 238 244 249 254 258 262 266 270 273 276 278 280 282 283 283 284 283 283 282 280 278 276 273 270 266 262 258 254 249 244 238 233 227 221 215 208 202 195 189 182 175 168 162 155 148 142 135 129 122 116 110 104  98  93  88  82  77  73  68  63  59  55  51  48  44
 33  36  38  41  45  48  51  55  59  62  66  71  75  80  84  89  94  99 104 109 114 120 125 130 136 141 147 152 158 163 168 173 178 183 188 193 197 201 205 209 212 215 218 221 223 225 226 228 228 229 229 229 228 228 226 225 223 221 218 215 212 209 205 201 197 193 188 183 178 173 168 163 158 152 147 141 136 130 125 120 114 109 104  99  94  89  84  80  75  71  66  62  59  55  51  48  45  41  38  36
 26  29  31  33  36  38  41  44  47  50  53  57  60  64  68  71  75  79  83  88  92  96 100 105 109 114 118 122 127 131 135 139 143 147 151 155 158 162 165 168 170 173 175 177 179 181 182 183 183 184 184 184 183 183 182 181 179 177 175 173 170 168 165 162 158 155 151 147 143 139 135 131 127 122 118 114 109 105 100  96  92  88  83  79  75  71  68  64  60  57  53  50  47  44  41  38  36  33  31  29
 21  23  24  26  28  30  33  35  37  40  42  45  48  51  54  57  60  63  66  70  73  77  80  84  87  91  94  98 101 104 108 111 114 117 121 123 126 129 131 134 136 138 140 141 143 144 145 146 146 147 147 147 146 146 145 144 143 141 140 138 136 134 131 129 126 123 121 117 114 111 108 104 101  98  94  91  87  84  80  77  73  70  66  63  60  57  54  51  48  45  42  40  37  35  33  30  28  26  24  23
 17  18  19  21  22  24  26  28  30  32  34  36  38  40  43  45  48  50  53  55  58  61  63  66  69  72  75  77  80  83  85  88  91  93  96  98 100 102 104 106 108 109 111 112 113 114 115 116 116 116 116 116 116 116 115 114 113 112 111 109 108 106 104 102 100  98  96  93  91  88  85  83  80  77  75  72  69  66  63  61  58  55  53  50  48  45  43  40  38  36  34  32  30  28  26  24  22  21  19  18
 13  14  15  16  18  19  20  22  23  25  26  28  30  32  34  35  37  39  41  44  46  48  50  52  54  57  59  61  63  65  67  69  71  73  75  77  79  81  82  84  85  86  87  88  89  90  91  91  91  92  92  92  91  91  91  90  89  88  87  86  85  84  82  81  79  77  75  73  71  69  67  65  63  61  59  57  54  52  50  48  46  44  41  39  37  35  34  32  30  28  26  25  23  22  20  19  18  16  15  14
 10  11  12  13  14  15  16  17  18  19  21  22  23  25  26  28  29  31  32  34  36  37  39  41  42  44  46  48  49  51  53  54  56  57  59  60  62  63  64  65  66  67  68  69  70  70  71  71  72  72  72  72  72  71  71  70  70  69  68  67  66  65  64  63  62  60  59  57  56  54  53  51  49  48  46  44  42  41  39  37  36  34  32  31  29  28  26  25  23  22  21  19  18  17  16  15  14  13  12  11
  8   8   9  10  11  11  12  13  14  15  16  17  18  19  20  21  23  24  25  26  28  29  30  32  33  34  36  37  38  40  41  42  43  45  46  47  48  49  50  51  52  52  53  54  54  55  55  55  56  56  56  56  56  55  55  55  54  54  53  52  52  51  50  49  48  47  46  45  43  42  41  40  38  37  36  34  33  32  30  29  28  26  25  24  23  21  20  19  18  17  16  15  14  13  12  11  11  10   9   8
  6   6   7   7   8   9   9  10  11  11  12  13  14  15  16  16  17  18  19  20  21  22  23  24  25  26  28  29  30  31  32  33  34  34  35  36  37  38  39  39  40  41  41  42  42  42  43  43  43  43  43  43  43  43  43  42  42  42  41  41  40  39  39  38  37  36  35  34  34  33  32  31  30  29  28  26  25  24  23  22  21  20  19  18  17  16  16  15  14  13  12  11  11  10   9   9   8   7   7   6
  4   5   5   6   6   7   7   8   8   9   9  10  11  11  12  13  13  14  15  16  16  17  18  19  19  20  21  22  23  23  24  25  26  26  27  28  28  29  30  30  31  31  31  32  32  32  33  33  33  33  33  33  33  33  33  32  32  32  31  31  31  30  30  29  28  28  27  26  26  25  24  23  23  22  21  20  19  19  18  17  16  16  15  14  13  13  12  11  11  10   9   9   8   8   7   7   6   6   5   5
  3   4   4   4   5   5   5   6   6   7   7   7   8   8   9  10  10  11  11  12  12  13  14  14  15  15  16  17  17  18  18  19  20  20  21  21  22  22  22  23  23  24  24  24  24  25  25  25  25  25  25  25  25  25  25  25  24  24  24  24  23  23  22  22  22  21  21  20  20  19  18  18  17  17  16  15  15  14  14  13  12  12  11  11  10  10   9   8   8   7   7   7   6   6   5   5   5   4   4   4
  2   3   3   3   3   4   4   4   5   5   5   6   6   6   7   7   8   8   8   9   9  10  10  11  11  12  12  12  13  13  14  14  15  15  16  16  16  17  17  17  18  18  18  18  18  19  19  19  19  19  19  19  19  19  19  19  18  18  18  18  18  17  17  17  16  16  16  15  15  14  14  13  13  12  12  12  11  11  10  10   9   9   8   8   8   7   7   6   6   6   5   5   5   4   4   4   3   3   3   3
  2   2   2   2   2   3   3   3   3   4   4   4   4   5   5   5   6   6   6   7   7   7   8   8   8   9   9   9  10  10  10  11  11  11  12  12  12  12  13  13  13  13  14  14  14  14  14  14  14  14  14  14  14  14  14  14  14  14  14  13  13  13  13  12  12  12  12  11  11  11  10  10  10   9   9   9   8   8   8   7   7   7   6   6   6   5   5   5   4   4   4   4   3   3   3   3   2   2   2   2
  1   1   1   2   2   2   2   2   2   3   3   3   3   3   4   4   4   4   5   5   5   5   6   6   6   6   7   7   7   7   8   8   8   8   9   9   9   9   9  10  10  10  10  10  10  10  10  11  11  11  11  11  11  11  10  10  10  10  10  10  10  10   9   9   9   9   9   8   8   8   8   7   7   7   7   6   6   6   6   5   5   5   5   4   4   4   4   3   3   3   3   3   2   2   2   2   2   2   1   1
  1   1   1   1   1   1   1   1   2   2   2   2   2   2   3   3   3   3   3   3   4   4   4   4   4   5   5   5   5   5   6   6   6   6   6   6   7   7   7   7   7   7   7   7   8   8   8   8   8   8   8   8   8   8   8   8   8   7   7   7   7   7   7   7   7   6   6   6   6   6   6   5   5   5   5   5   4   4   4   4   4   3   3   3   3   3   3   2   2   2   2   2   2   1   1   1   1   1   1   1
  0   0   1   1   1   1   1   1   1   1   1   1   2   2   2   2   2   2   2   2   3   3   3   3   3   3   3   4   4   4   4   4   4   4   5   5   5   5   5   5   5   5   5   5   5   6   6   6   6   6   6   6   6   6   6   6   5   5   5   5   5   5   5   5   5   5   5   4   4   4   4   4   4   4   3   3   3   3   3   3   3   2   2   2   2   2   2   2   2   1   1   1   1   1   1   1   1   1   1   0
